<svg xmlns="http://www.w3.org/2000/svg" data-name="Layer 1">
    <defs>
        <symbol id="arm" viewBox="0 0 95 118.75" x="0px" y="0px">
            <path class="cls-1" d="M12.09,80.53h3.84A25.74,25.74,0,0,1,33,61.84l1.91-23.48A7.5,7.5,0,0,1,38.27,27L62.86,14.85l-.26-.33a1,1,0,0,1-.09-1.19h0l2.93-4.94,2.73-5.32a1,1,0,0,1,1.1-.55h0l6,1a1.05,1.05,0,0,1,.87,1.2v.05h0l-.76,3.62a1,1,0,0,1-1.23.81l-2.7-.43-2.15,4.19a5.57,5.57,0,0,1,4.28,4.3l4.2-2.13-.43-2.74a1.06,1.06,0,0,1,.84-1.19l3.6-.73h.07a1.05,1.05,0,0,1,1.2.87l.92,5.92a1,1,0,0,1-.56,1.16L72.59,23.84a1.05,1.05,0,0,1-1.22-.2l-.49-.48a6,6,0,0,1-.72.35L47,38.66l2,23.18A25.77,25.77,0,0,1,66,80.53h3.83a1.07,1.07,0,0,1,1.06,1.06v9.85a1.06,1.06,0,0,1-1.06,1.06H12.09A1.05,1.05,0,0,1,11,91.44V81.59a1.06,1.06,0,0,1,1.05-1.06Zm52.7-66.64,0,0a5.54,5.54,0,0,1,2-.93l3-5.8A1.08,1.08,0,0,1,71,6.53l2.5.41.33-1.56-4.13-.67L67.31,9.35l-.06.12-2.56,4.3.1.12Zm8.73,5.7a5.43,5.43,0,0,1-.78,1.81l9-4.56-.65-4.14L79.54,13l.39,2.51a1,1,0,0,1-.56,1.09h0l-5.85,3ZM41,29.13a4.83,4.83,0,0,0,0,9.66,4.83,4.83,0,0,0,0-9.66ZM42.9,32A2.71,2.71,0,0,0,41,31.24,2.7,2.7,0,0,0,38.26,34a2.71,2.71,0,0,0,.79,1.92,2.76,2.76,0,0,0,1.93.8A2.73,2.73,0,0,0,43.7,34,2.76,2.76,0,0,0,42.9,32ZM68.11,15.79a2.56,2.56,0,1,0,1.81.75,2.55,2.55,0,0,0-1.81-.75ZM68.43,18a.46.46,0,0,0-.32-.13.44.44,0,0,0-.32.13.46.46,0,0,0-.13.32.44.44,0,0,0,.45.45.46.46,0,0,0,.32-.13.44.44,0,0,0,.13-.32.46.46,0,0,0-.13-.32Zm-5.77-.74L43.3,26.83A7.49,7.49,0,0,1,48.47,34a7.83,7.83,0,0,1-.11,1.29L66.22,23.57a5.57,5.57,0,0,1-2-1.3,5.5,5.5,0,0,1-1.63-3.92,6.14,6.14,0,0,1,.1-1.06Zm7.88-1.37a3.43,3.43,0,1,0,1,2.43,3.43,3.43,0,0,0-1-2.43Zm-31.48,13-.9.45A5.38,5.38,0,0,0,35.59,34,5.38,5.38,0,1,0,41,28.57a5.54,5.54,0,0,0-1.92.35ZM36.88,40.23l-1.72,21A25.39,25.39,0,0,1,41,60.57a25.78,25.78,0,0,1,5.8.66L45,40.27a7.49,7.49,0,0,1-8.13,0ZM41,64.48a7.49,7.49,0,1,0,5.3,2.2,7.45,7.45,0,0,0-5.3-2.2Zm3.8,3.69A5.38,5.38,0,1,0,46.36,72a5.38,5.38,0,0,0-1.58-3.81ZM18.09,80.53H63.86a23.59,23.59,0,0,0-45.77,0Zm50.72,2.11H13.15v7.75H68.81Z"/>
        </symbol>
    </defs>
</svg>
