<svg xmlns="http://www.w3.org/2000/svg">
    <defs>
        <symbol id="elevator" viewBox="-5.0 -10.0 110.0 135.0">
            <path d="m94.625 0h-89.25l-5.375 5.375v89.207l5.375 5.375h89.207l5.375-5.375v-89.207l-5.375-5.375zm-44.625 16.668h-29.168v-4.168h29.168zm4.168 4.1641h9.543l2.957 2.957v3.293h-62.5v-6.25zm-47.043 75-2.957-2.957v-61.625h29.168v64.582zm30.375 0v-64.582h29.168v64.582zm58.332-2.957-2.957 2.957h-22.043v-73.789l-5.375-5.375h-11.293v-8.332l-37.496-0.003907v8.332l-12.5 0.003907v-9.543l2.957-2.957h85.793l2.957 2.957v85.793zm-20.832-54.168v5.043h16.668v-5.043l-8.332-8.332-8.332 8.332zm5.043 0.875 3.293-3.293 3.293 3.293h-6.625zm-5.043 13.375 8.332 8.332 8.332-8.332v-5.043h-16.668v5.043zm11.625-0.875-3.293 3.293-3.293-3.293h6.625zm-11.625 12.5h16.668v4.168h-16.668zm0 8.3359h16.668v4.168h-16.668z"/>
        </symbol>
    </defs>
</svg>