<svg xmlns="http://www.w3.org/2000/svg" xmlns:xlink="http://www.w3.org/1999/xlink" version="1.1" style="enable-background:new 0 0 100 100;" xml:space="preserve">
    <defs>
        <symbol id="gear"  x="0px" y="0px" viewBox="0 0 100 125">
            <path d="M14.95,39.91c0.76-2.76,1.75-5.43,2.98-8c0.08-0.18,0.07-0.34-0.04-0.51l-6.88-9.92c-0.15-0.22-0.13-0.51,0.05-0.7  c2.77-3.1,5.66-6.16,8.68-9.16c0.71-0.7,1.47-0.8,2.3-0.29c3.19,1.97,6.23,4.16,9.12,6.58c0.1,0.09,0.24,0.11,0.37,0.06l8.1-3.32  c0.1-0.04,0.17-0.11,0.19-0.22L42.66,3.3c0.1-0.38,0.44-0.65,0.83-0.65L55.84,2.5c0.34-0.01,0.65,0.23,0.72,0.56l2.75,11.24  c0.05,0.2,0.19,0.36,0.38,0.43l8.53,3.5c0.15,0.06,0.28,0.04,0.4-0.07c3-2.67,6.24-5.01,9.73-7.03c0.26-0.15,0.58-0.1,0.78,0.1  l9.38,9.39c0.18,0.18,0.21,0.45,0.09,0.67c-2.14,3.66-4.54,7.13-7.21,10.41c-0.1,0.12-0.11,0.29-0.04,0.42  c1.44,2.61,2.61,5.34,3.5,8.18c0.08,0.26,0.3,0.46,0.56,0.53l11.43,2.83c0.12,0.03,0.18,0.1,0.18,0.23l0.34,11.75  c0.01,0.41-0.26,0.77-0.65,0.88L85.15,59.7c-0.12,0.03-0.22,0.12-0.26,0.24l-3.11,8.02c-0.06,0.15-0.04,0.28,0.05,0.41l6.55,9.25  c0.15,0.2,0.13,0.48-0.04,0.67c-2.62,2.9-5.24,5.84-7.86,8.81c-0.45,0.51-0.96,0.93-1.54,1.27c-0.16,0.09-0.35,0.1-0.51,0.02  c-3.52-1.81-6.83-3.94-9.94-6.39c-0.16-0.13-0.38-0.14-0.55-0.04c-2.56,1.49-5.27,2.63-8.13,3.42c-0.12,0.03-0.21,0.13-0.24,0.24  L56.3,97.24c-0.04,0.16-0.19,0.27-0.35,0.26l-12.09-0.18c-0.54-0.01-0.89-0.28-1.03-0.8l-2.95-10.67c-0.04-0.16-0.14-0.27-0.3-0.31  c-2.77-0.8-5.38-1.93-7.86-3.4c-0.13-0.08-0.26-0.07-0.39,0.01L21.05,88.8c-0.2,0.13-0.46,0.09-0.62-0.08l-9.33-10.2  c-0.11-0.13-0.14-0.31-0.05-0.46c2.02-3.56,4.3-6.93,6.87-10.11c0.12-0.15,0.15-0.31,0.08-0.5l-3.05-7.69  c-0.05-0.13-0.16-0.22-0.29-0.26l-11.7-3.04c-0.19-0.05-0.32-0.22-0.32-0.42L2.63,44.58c0-0.39,0.26-0.73,0.63-0.84l11.28-3.41  C14.75,40.26,14.89,40.12,14.95,39.91 M51.36,68.41c9.79-0.91,16.98-9.74,16.05-19.72c-0.92-9.98-9.61-17.34-19.4-16.44  c-9.79,0.91-16.98,9.74-16.05,19.72C32.88,61.96,41.56,69.32,51.36,68.41L51.36,68.41z"/>
        </symbol>
    </defs>
</svg>