<svg xmlns="http://www.w3.org/2000/svg" version="1.1" >
    <defs>
        <symbol id="screw" viewBox="-5.0 -10.0 110.0 135.0">
            <path d="m5.7148 79.816c7.668 5.1484 9.3711 8.1758 18.336 1.1211l20.539 13.945c4.9258 3.3594 11.781 2.1211 15.188-2.9023 2.3984-3.543 2.5195-8.1914 0.30859-11.84-0.44922-0.73828-1.4102-0.97266-2.1445-0.52734-0.73828 0.44531-0.97656 1.4062-0.52734 2.1445 4.3555 7.3125-4.4492 15.379-11.352 10.344l3.3906-9.2383c0.67578-1.9414-2.1914-2.9922-2.9336-1.0781l-3.1211 8.5078-3.793-2.5742 3.2695-8.918c0.67188-1.9375-2.1875-2.9922-2.9336-1.0742l-3 8.1875-3.8047-2.582c0.070312-0.097656 6.0312-16.625 6.1523-16.676 0.44922-0.72266 0.125-1.6523-0.49609-2.1484l-2.457-1.6797c1.5938-4.1211 1.8047-10.516-1.332-12.227l-6.457-4.3867c-9.1055-6.7266-33.105 24.426-22.824 33.605zm29.453-14.004 0.85156 0.58203-5.5469 15.121-4.0742-2.7656c3.3945-3.4141 6.832-8.4609 8.7695-12.938zm-4.125-14.07c0-0.058594 2.2031 1.4375 2.2031 1.4375 3.4102 3.7188-1.3945 13.129-4.4844 17.73-5.5273 8.1406-12.383 12.363-14.824 10.707l-2.207-1.5c8.5586-2.707 19.934-19.457 19.312-28.379zm-24.402 19.449c1.25-8.2695 12.375-22.762 18.828-22.754 1.8594-0.10156 2.4688 1.8359 2.4492 3.3828 0.10938 3.8086-2.043 9.4414-5.6172 14.703-3.8906 6.5547-18.094 18.57-15.66 4.668z"/>
            <path d="m12.738 71.035c0.5 0 0.99219-0.23828 1.293-0.68359l3.5117-5.1719 1.293 0.87891c0.70312 0.48047 1.6836 0.30469 2.168-0.41406 0.48438-0.71484 0.30078-1.6875-0.41406-2.1719l-1.293-0.87891 3.5117-5.1719c0.48438-0.71484 0.30078-1.6836-0.41406-2.168-0.71094-0.48438-1.6875-0.29688-2.168 0.41406l-3.5117 5.1719-1.293-0.87891c-0.71094-0.48438-1.6836-0.29688-2.168 0.41406-0.48438 0.71484-0.30078 1.6875 0.41406 2.1719l1.293 0.87891-3.5117 5.1719c-0.71875 0.99219 0.082031 2.4727 1.2891 2.4414z"/>
            <path d="m67.133 26.023-5.6523 5.3906c-2.5 2.3867-2.0664 7.0391 0.69922 12.293l-0.49219 0.46875c-1.4531 1.3945 0.625 3.6406 2.1211 2.2852 2.5859 4.0117 6.9141 8.5391 10.805 11.301l-0.75391 0.71875-9.1328-5.7773c-1.7539-1.0703-3.3867 1.5156-1.668 2.6406l8.4727 5.3555-3.3203 3.1641-6.125-3.8633c-1.75-1.0625-3.3867 1.5156-1.668 2.6445l5.457 3.4414-3.3242 3.168-6.8594-4.332c-1.7578-1.0625-3.3867 1.5156-1.668 2.6445l6.1914 3.9102-3.082 2.9336c-6.0234 5.7109-15.633-0.77734-12.664-8.4766 0.71875-1.9219-2.1367-3.0391-2.9102-1.1367-2.8945 6.8672 2.7422 15.125 10.203 14.898 2.8242 0 5.4922-1.0703 7.5312-3.0234l4.4922-4.2812c3.2852-3.1211 10.203-9.7305 13.492-12.855 4.3945 2.3867 8.6133 4.1562 12.234 1.2773l5.6484-5.3867c8.4609-9.3086-18.32-37.395-28.035-29.402zm20.23 32.527c-2.1328 2.0312-9.5977-1.0039-16.387-8.1211-6.7891-7.1172-9.4727-14.715-7.3398-16.75l1.9297-1.8398c0.83594 8.9336 14.812 23.59 23.664 24.863 0.058593 0.011719-1.8711 1.8516-1.8711 1.8516zm5.6523-5.3906c-4.0352 2.4609-12.016-3.5742-16.387-8.125-4.3906-4.6016-7.4414-9.8047-7.9609-13.59-0.33984-1.8125 0.20703-3.9141 2.543-3.7656 8.8008 0.97266 18.41 11.508 21.633 19.387 1.1016 2.8672 1.1641 5.1445 0.17188 6.0938z"/>
            <path d="m82.336 37.434-1.1289 1.0781-4.3125-4.5234c-0.59375-0.625-1.582-0.64844-2.2109-0.050781-0.625 0.59766-0.64844 1.5859-0.050782 2.207l4.3125 4.5234-1.1328 1.0781c-0.625 0.59766-0.64844 1.5859-0.050781 2.2109 0.59766 0.625 1.5859 0.64844 2.2109 0.050781l1.1328-1.0781 4.3125 4.5234c0.59766 0.625 1.5859 0.64844 2.2109 0.050781s0.64844-1.5859 0.050782-2.207l-4.3125-4.5234 1.1289-1.0781c1.4727-1.418-0.67188-3.6641-2.1562-2.2617z"/>
            <path d="m24.082 24.391c0.28906 3.5547 6.2148 5.9688 10.625 6.1914l4.3984 24.457c0.91797 5.8008 6.9688 9.9961 12.707 8.8203 5.9375-1.0742 9.8945-6.7734 8.8242-12.703l-1.0938-6.1406c-0.015625-0.074219-0.03125-0.14844-0.054688-0.21875l-3.2461-18.074c5.3398-2.6055 8.4375-6.1094 7.8281-9.5117l-1.3828-7.6914c-1.5547-11.211-40.609-6.582-39.984 7.1797l1.3828 7.6914zm14.703 11.203-0.875-4.8555c4.8906 0.050781 10.875-1.043 15.379-2.75l0.17969 1-14.688 6.6055zm0.57031 3.1719 14.684-6.6055 0.8125 4.5195-14.684 6.6055zm2.1953 12.207-0.8125-4.5195 14.684-6.6055 0.8125 4.5195zm15.262-3.4375 0.74219 4.1797c1.4453 10.5-13.59 12.828-15.438 2.4297zm4.1758-29.773c0.51953 2.9023-6.1328 7.4492-15.812 9.1875-5.4414 0.95703-16.02 1.5117-18.02-3.1133l-0.47266-2.625c10.043 4.207 26.598 0.82422 33.793-6.0312 0.042969-0.042969 0.51172 2.582 0.51172 2.582zm-31.477-6.4297c4.5586-3.0625 13.109-5.1172 19.18-5.0273 7.3281 0.085937 13.844 2.2227 9.5508 6.6992-2.6484 2.7383-8.1836 5.1367-14.441 6.2617-7.3945 1.8047-25.926 0.046875-14.285-7.9297z"/>
            <path d="m35 16.055c0.089844 0 0.18359-0.007813 0.27734-0.023438l6.1523-1.1055 0.27734 1.5391c0.14844 0.85547 0.98438 1.4141 1.8125 1.2617 0.85156-0.15234 1.4141-0.96484 1.2617-1.8125l-0.27734-1.5391 6.1523-1.1055c0.85156-0.15234 1.4141-0.96484 1.2617-1.8125-0.15234-0.85156-0.96875-1.4141-1.8125-1.2617l-6.1523 1.1055-0.27734-1.5391c-0.15234-0.85156-0.96875-1.4141-1.8125-1.2617-0.85156 0.15234-1.4141 0.96484-1.2617 1.8125l0.27734 1.5391-6.1523 1.1055c-1.8516 0.32422-1.5859 3.1172 0.27344 3.1016z"/>
        </symbol>
    </defs>
</svg>