<svg xmlns="http://www.w3.org/2000/svg" xmlns:xlink="http://www.w3.org/1999/xlink" >
    <defs>
        <symbol id="drivetrain" x="0px" y="0px" viewBox="0 0 64 80">
            <path d="M60,49h-1v-1c0-1.654-1.346-3-3-3h-4c-1.654,0-3,1.346-3,3v1h-8v-4h-4v-4h-2V19h2v-4h4v-4h8v1c0,1.654,1.346,3,3,3h4  c1.654,0,3-1.346,3-3v-1h1c1.654,0,3-1.346,3-3s-1.346-3-3-3h-1V4c0-1.654-1.346-3-3-3h-4c-1.654,0-3,1.346-3,3v1h-8V1H23v4h-8V4  c0-1.654-1.346-3-3-3H8C6.346,1,5,2.346,5,4v1H4C2.346,5,1,6.346,1,8s1.346,3,3,3h1v1c0,1.654,1.346,3,3,3h4c1.654,0,3-1.346,3-3v-1  h8v4h4v4h2v22h-2v4h-4v4h-8v-1c0-1.654-1.346-3-3-3H8c-1.654,0-3,1.346-3,3v1H4c-1.654,0-3,1.346-3,3s1.346,3,3,3h1v1  c0,1.654,1.346,3,3,3h4c1.654,0,3-1.346,3-3v-1h8v4h2v4h14v-4h2v-4h8v1c0,1.654,1.346,3,3,3h4c1.654,0,3-1.346,3-3v-1h1  c1.654,0,3-1.346,3-3S61.654,49,60,49z M35,17h-6V9h6V17z M31,7V3h2v4H31z M60,7c0.552,0,1,0.449,1,1s-0.448,1-1,1h-1V7H60z M51,4  c0-0.551,0.448-1,1-1h4c0.552,0,1,0.449,1,1v8c0,0.551-0.448,1-1,1h-4c-0.552,0-1-0.449-1-1V4z M49,7v2h-8V7H49z M39,13h-2V7h-2V3h4  V13z M4,9C3.448,9,3,8.551,3,8s0.448-1,1-1h1v2H4z M13,12c0,0.551-0.448,1-1,1H8c-0.552,0-1-0.449-1-1V4c0-0.551,0.448-1,1-1h4  c0.552,0,1,0.449,1,1V12z M15,9V7h8v2H15z M25,13V3h4v4h-2v6H25z M31,19h2v22h-2V19z M29,43h6v8h-6V43z M31,57v-4h2v4H31z M4,53  c-0.552,0-1-0.448-1-1s0.448-1,1-1h1v2H4z M13,56c0,0.552-0.448,1-1,1H8c-0.552,0-1-0.448-1-1v-8c0-0.552,0.448-1,1-1h4  c0.552,0,1,0.448,1,1V56z M15,53v-2h8v2H15z M25,47h2v6h2v4h-4V47z M37,61H27v-2h10V61z M39,57h-4v-4h2v-6h2V57z M41,53v-2h8v2H41z   M57,56c0,0.552-0.448,1-1,1h-4c-0.552,0-1-0.448-1-1v-8c0-0.552,0.448-1,1-1h4c0.552,0,1,0.448,1,1V56z M60,53h-1v-2h1  c0.552,0,1,0.448,1,1S60.552,53,60,53z"/>
        </symbol>
    </defs>
</svg>
